<svg xmlns="http://www.w3.org/2000/svg" width="32.59791" height="50.38456" viewBox="0 0 32.59791 50.38456" creator="Katerina Limpitsouni"><path d="M16.1115,24.78269c-3.45621,1.46756-6.09759,4.67256-9.92308,5.25146l.92259,.92259c.32418-2.1297,.64835-4.2594,.97253-6.38911,.15156-.9957,.35135-1.99865,.45936-2.99933,.06822-.63206-.12113-.88358-.46537-1.44877-1.81071-2.97293-4.19175-5.51116-6.97698-7.58899l-.37854,1.3976c1.86575-.04146,3.72378-.24288,5.54901-.63724,1.02504-.22147,2.03843-.50148,3.03087-.84059,.6512-.22251,1.52684-.40554,2.04496-.86146,.43655-.38414,.56527-.9388,.77786-1.46582l1.20497-2.98711L15.83232,.93192l-1.37081,.17916c2.14331,2.92223,3.8865,6.0923,5.17224,9.48184,.24002,.63276,1.27572,.78856,1.44642,0l.05519-.25494-.72321,.55062c3.81272,.44416,7.62544,.88831,11.43816,1.33247l-.53033-1.28033c-1.48405,1.56784-2.9681,3.13567-4.45216,4.70351-.74203,.78392-1.48405,1.56784-2.22608,2.35176-.38343,.40508-.91243,.7827-1.07298,1.33448-.22108,.75982-.06076,1.7601-.03648,2.54237,.03393,1.09349,.12396,2.18385,.26215,3.26899,.24586,1.93057,.65679,3.82466,1.21366,5.68887l.92259-.92259c-1.73512-.58569-3.40233-1.32152-4.99101-2.23412-1.26469-.72649-3.00629-1.61789-3.91928-2.77405-.5979-.75714-1.65286,.31073-1.06066,1.06066,.98653,1.24928,2.87226,2.23275,4.22286,3.00859,1.69861,.97575,3.49451,1.75924,5.34933,2.38533,.54268,.18318,1.0803-.39464,.92259-.92259-.49207-1.6473-.88214-3.32196-1.12337-5.02516-.14391-1.01607-.23424-2.04055-.28103-3.0656-.03113-.68199-.24614-1.86629-.02313-2.50218,.19172-.54666,1.08297-1.21291,1.53161-1.68688,.62787-.66332,1.25574-1.32663,1.8836-1.98995,1.31282-1.38693,2.62563-2.77386,3.93845-4.1608,.48239-.50962,.09786-1.20715-.53033-1.28033-3.81272-.44416-7.62544-.88831-11.43816-1.33247-.3074-.03581-.65969,.25716-.72321,.55062l-.05519,.25494h1.44642c-1.33263-3.51314-3.10041-6.80922-5.32345-9.84016-.40125-.54707-1.12144-.43904-1.37081,.17916l-2.03918,5.05511-1.11228,2.75733c-.21541,.53399-.45138,1.7027-.85708,2.09078-.39815,.38085-1.37229,.53817-1.901,.70901-.78434,.25344-1.58065,.46913-2.38479,.64982-1.76769,.3972-3.55956,.59272-5.36954,.63294-.79618,.01769-.95123,.97037-.37854,1.3976,1.28405,.95792,2.47643,2.03067,3.55888,3.21212,.56638,.61818,1.10302,1.26368,1.60222,1.93733,.44226,.59681,.78944,1.35044,1.27775,1.90142,.08102,.09142,.35255,.47563,.31416,.29293,.05006,.23823-.11846,.75978-.16012,1.03345-.14962,.98294-.29924,1.96588-.44886,2.94882-.2743,1.80206-.5486,3.60411-.82291,5.40617-.09135,.60011,.32292,1.01334,.92259,.92259,3.97676-.6018,6.69817-3.88119,10.2814-5.40268,.88566-.37606,.12216-1.66854-.75708-1.29521Z" fill="#3434aa" origin="undraw"/><g><path d="M11.79806,27.58927c-2.0705,5.17389-1.40531,11.38245,1.89284,15.91135,3.21492,4.41461,8.54573,7.01017,13.99674,6.87921,.96362-.02315,.96722-1.52324,0-1.5-5.01703,.12053-10.00372-2.2684-12.89629-6.41005-2.93886-4.20792-3.44037-9.75014-1.54687-14.48175,.35862-.89614-1.09158-1.28545-1.44642-.39876h0Z" fill="#3434aa"/><path d="M18.57256,27.81143c-1.44354,3.60721-.9755,7.96495,1.3252,11.12172,2.26092,3.10219,5.98986,4.9386,9.82694,4.84642,.96362-.02315,.96722-1.52324,0-1.5-3.36254,.08079-6.725-1.51106-8.66565-4.29174-1.98877-2.84964-2.32185-6.57463-1.04006-9.77763,.35862-.89614-1.09158-1.28545-1.44642-.39876h0Z" fill="#3434aa"/></g></svg>
